<mxfile host="app.diagrams.net" modified="2023-11-17T14:18:44.143Z" agent="Mozilla/5.0 (Windows NT 10.0; Win64; x64) AppleWebKit/537.36 (KHTML, like Gecko) Chrome/119.0.0.0 Safari/537.36" version="22.1.3" etag="8Dp_KwnQ3CaUbn2VLuLz" type="github">
  <diagram name="Page-1" id="I63dqVRAKwoPqK8Le4ht">
    <mxGraphModel>
      <root>
        <mxCell id="0" />
        <mxCell id="1" parent="0" />
      </root>
    </mxGraphModel>
  </diagram>
</mxfile>
